<svg width="48" height="48" viewBox="0 0 48 48" fill="none" xmlns="http://www.w3.org/2000/svg">
<rect x="2.5" y="2.5" width="43" height="43" rx="7.5" fill="white" stroke="#565656" stroke-width="5"/>
<path d="M32.836 17.064C33.292 17.028 33.622 16.974 33.826 16.902C34.03 16.818 34.162 16.692 34.222 16.524C34.294 16.344 34.33 16.062 34.33 15.678V10.242C33.85 10.254 33.502 10.302 33.286 10.386C33.082 10.47 32.932 10.632 32.836 10.872C32.74 11.112 32.656 11.52 32.584 12.096L31.216 12.186C31.228 11.982 31.252 11.55 31.288 10.89C31.336 10.218 31.366 9.588 31.378 9L31.558 8.82L33.088 8.982H37.732L39.298 8.82L39.478 9C39.49 9.612 39.508 10.236 39.532 10.872C39.568 11.508 39.592 11.916 39.604 12.096L38.236 12.186C38.164 11.562 38.08 11.124 37.984 10.872C37.9 10.62 37.762 10.458 37.57 10.386C37.378 10.302 37.054 10.254 36.598 10.242C36.502 11.61 36.454 13.536 36.454 16.02C36.454 16.368 36.514 16.614 36.634 16.758C36.754 16.902 36.964 16.974 37.264 16.974C37.456 16.974 37.624 16.968 37.768 16.956C37.912 16.944 38.002 16.938 38.038 16.938L38.092 17.01L37.966 18.072C37.762 18.06 37.39 18.042 36.85 18.018C36.31 18.006 35.794 18 35.302 18C34.954 18 34.486 18.012 33.898 18.036C33.31 18.072 32.92 18.096 32.728 18.108L32.836 17.064Z" fill="black"/>
<path d="M10.836 39.064C11.292 39.028 11.622 38.974 11.826 38.902C12.03 38.818 12.162 38.692 12.222 38.524C12.294 38.344 12.33 38.062 12.33 37.678V32.242C11.85 32.254 11.502 32.302 11.286 32.386C11.082 32.47 10.932 32.632 10.836 32.872C10.74 33.112 10.656 33.52 10.584 34.096L9.216 34.186C9.228 33.982 9.252 33.55 9.288 32.89C9.336 32.218 9.366 31.588 9.378 31L9.558 30.82L11.088 30.982H15.732L17.298 30.82L17.478 31C17.49 31.612 17.508 32.236 17.532 32.872C17.568 33.508 17.592 33.916 17.604 34.096L16.236 34.186C16.164 33.562 16.08 33.124 15.984 32.872C15.9 32.62 15.762 32.458 15.57 32.386C15.378 32.302 15.054 32.254 14.598 32.242C14.502 33.61 14.454 35.536 14.454 38.02C14.454 38.368 14.514 38.614 14.634 38.758C14.754 38.902 14.964 38.974 15.264 38.974C15.456 38.974 15.624 38.968 15.768 38.956C15.912 38.944 16.002 38.938 16.038 38.938L16.092 39.01L15.966 40.072C15.762 40.06 15.39 40.042 14.85 40.018C14.31 40.006 13.794 40 13.302 40C12.954 40 12.486 40.012 11.898 40.036C11.31 40.072 10.92 40.096 10.728 40.108L10.836 39.064Z" fill="black"/>
<path d="M19.5006 29.0238C19.5137 29.2996 19.748 29.5126 20.0238 29.4994L24.5187 29.2854C24.7945 29.2723 25.0075 29.038 24.9943 28.7622C24.9812 28.4863 24.747 28.2734 24.4711 28.2865L20.4757 28.4768L20.2854 24.4813C20.2723 24.2055 20.038 23.9925 19.7622 24.0057C19.4863 24.0188 19.2734 24.253 19.2865 24.5289L19.5006 29.0238ZM29.63 17.6637L19.63 28.6637L20.37 29.3363L30.37 18.3363L29.63 17.6637Z" fill="black"/>
</svg>
