<svg width="48" height="51" viewBox="0 0 48 51" fill="none" xmlns="http://www.w3.org/2000/svg">
<rect x="2.5" y="5.5" width="43" height="43" rx="7.5" fill="white" stroke="#565656" stroke-width="5"/>
<path d="M12.656 35.02C13.688 34.828 14.372 34.528 14.708 34.12C15.068 33.712 15.248 33.004 15.248 31.996V18.064C15.248 17.32 15.164 16.828 14.996 16.588C14.828 16.324 14.48 16.192 13.952 16.192L12.872 16.228L12.692 15.94L12.944 13.852L17.228 13.888C18.164 13.888 19.952 13.804 22.592 13.636L22.376 16.012C21.752 16.108 21.296 16.24 21.008 16.408C20.744 16.552 20.552 16.78 20.432 17.092C20.336 17.404 20.264 17.908 20.216 18.604L20 23.788L24.716 23.86C25.964 23.86 27.392 23.776 29 23.608V18.064C29 17.32 28.916 16.828 28.748 16.588C28.58 16.324 28.232 16.192 27.704 16.192L26.588 16.228L26.408 15.94L26.696 13.852L31.232 13.888C32.024 13.888 33.764 13.804 36.452 13.636L36.272 15.976C35.384 16.096 34.796 16.288 34.508 16.552C34.244 16.792 34.088 17.26 34.04 17.956C33.92 20.068 33.812 22.492 33.716 25.228C33.644 27.964 33.608 30.256 33.608 32.104C33.608 33.112 33.704 33.796 33.896 34.156C34.112 34.516 34.508 34.696 35.084 34.696C35.348 34.696 35.804 34.66 36.452 34.588L36.596 34.84L36.272 37.108C35.936 37.108 35.684 37.096 35.516 37.072C33.692 37.024 32.216 37 31.088 37L26.12 37.072L26.408 34.768C27.104 34.744 27.632 34.636 27.992 34.444C28.376 34.252 28.64 33.928 28.784 33.472C28.928 32.992 29 32.308 29 31.42V26.776L25.04 26.74C24.512 26.74 23.792 26.776 22.88 26.848C21.968 26.92 20.984 27.004 19.928 27.1L19.82 32.248C19.82 33.232 19.916 33.892 20.108 34.228C20.3 34.564 20.672 34.732 21.224 34.732C21.464 34.732 21.908 34.696 22.556 34.624L22.736 34.84L22.412 37.108C20.684 37.036 19.244 37 18.092 37C17.276 37 16.268 37.036 15.068 37.108C13.892 37.18 13.004 37.252 12.404 37.324L12.656 35.02Z" fill="#262626"/>
</svg>
