<svg width="48" height="51" viewBox="0 0 48 51" fill="none" xmlns="http://www.w3.org/2000/svg">
<rect x="2.5" y="5.5" width="43" height="43" rx="7.5" fill="white" stroke="#565656" stroke-width="5"/>
<path d="M16.836 34.948C17.748 34.804 18.372 34.516 18.708 34.084C19.044 33.652 19.212 32.908 19.212 31.852L19.248 18.064C19.248 17.32 19.164 16.828 18.996 16.588C18.828 16.324 18.48 16.192 17.952 16.192L16.836 16.228L16.656 15.94L16.944 13.852L21.768 13.888C22.44 13.888 23.412 13.852 24.684 13.78C25.98 13.708 26.832 13.66 27.24 13.636L26.988 16.12C26.172 16.216 25.572 16.36 25.188 16.552C24.828 16.72 24.588 16.972 24.468 17.308C24.372 17.62 24.3 18.124 24.252 18.82C23.988 22.42 23.856 26.824 23.856 32.032C23.856 32.68 23.916 33.16 24.036 33.472C24.156 33.76 24.372 33.964 24.684 34.084C24.996 34.18 25.476 34.228 26.124 34.228C27.324 34.228 28.212 34.096 28.788 33.832C29.388 33.568 29.832 33.064 30.12 32.32C30.408 31.576 30.648 30.4 30.84 28.792L33.756 28.468L34.008 28.828C33.936 29.284 33.792 30.316 33.576 31.924C33.384 33.508 33.216 35.176 33.072 36.928L32.712 37.288C32.064 37.264 30.66 37.204 28.5 37.108C26.34 37.036 24.384 37 22.632 37C21.312 37 20.052 37.048 18.852 37.144C17.652 37.24 16.884 37.312 16.548 37.36L16.836 34.948Z" fill="#262626"/>
</svg>
